<svg width="2048" height="360" viewBox="0 0 2048 360" fill="none" xmlns="http://www.w3.org/2000/svg">
  <path d="M0 0h2048v360H0z" fill="transparent"/>
  <g opacity=".28" stroke="#d8c6aa" stroke-width="1.1" fill="none">
    <path d="M0 78c73-38 139-8 206-30 68-23 104-82 183-72 63 8 83 58 148 62 72 5 103-51 177-46 76 5 91 72 170 72 75 0 101-59 176-53 83 6 92 78 176 85 96 7 142-80 238-67 80 11 89 78 172 86 85 8 124-52 209-47 86 5 115 70 196 66 77-4 91-65 168-67 56-1 89 28 129 48"/>
    <path d="M-20 120c86-46 145-19 226-46 76-26 116-87 202-75 61 9 84 56 151 60 72 4 101-48 176-43 80 6 96 68 178 72 84 4 112-58 197-50 86 9 96 78 184 84 92 7 135-73 228-61 82 11 94 76 177 82 82 5 118-49 199-44 83 6 110 63 190 60 70-3 93-50 160-58"/>
    <path d="M-30 164c88-37 151-9 229-35 79-27 120-93 210-80 62 9 86 55 154 58 72 3 102-46 178-41 83 6 101 65 186 67 84 2 113-57 197-47 88 10 101 78 191 82 90 4 133-72 224-59 83 12 97 75 180 79 81 4 117-49 197-43 78 6 111 61 186 58 75-3 103-47 176-51"/>
    <path d="M-28 205c91-34 151-1 229-26 85-27 122-95 214-79 62 10 86 54 154 56 74 2 103-44 181-39 85 5 104 62 191 63 83 1 113-55 198-44 90 12 106 76 196 78 88 2 130-68 219-55 84 13 99 72 183 75 78 2 116-49 194-43 74 6 111 58 183 55 76-3 107-45 180-48"/>
    <path d="M-10 245c88-28 148 4 225-18 88-25 126-92 217-77 62 11 87 53 156 53 75 1 105-43 183-37 88 6 108 62 197 61 84-1 114-54 198-41 91 14 111 74 202 74 86 0 128-65 215-51 84 14 102 69 184 70 77 1 116-47 191-40 72 6 110 56 180 53 74-4 106-42 178-46"/>
    <path d="M8 286c87-21 145 11 221-9 90-24 131-87 221-72 62 11 88 50 156 50 76 0 106-40 185-35 91 7 111 59 201 57 84-2 115-50 200-37 92 15 115 71 206 69 85-2 126-61 212-47 83 14 104 65 185 66 76 0 115-44 188-38 70 6 109 53 177 49 72-4 104-39 174-43"/>
  </g>
  <g opacity=".42" stroke="#c9ad8e" stroke-width="1.4" fill="none">
    <path d="M1278 329c52-42 119-65 199-69 62-3 118 10 179 0 78-13 111-63 189-70 65-6 122 19 203-6"/>
    <path d="M1306 350c55-39 122-60 199-61 66-1 118 15 178 6 83-12 112-65 192-72 60-5 111 14 173-2"/>
    <path d="M1328 372c58-37 124-53 199-51 69 2 119 18 181 10 87-12 113-66 196-74 55-5 100 9 144-2"/>
  </g>
  <path d="M1304 360c78-53 169-78 273-76 89 1 160 29 250 11 79-16 122-67 221-76v141H1304Z" fill="#cfe8f4" opacity=".82"/>
  <g opacity=".38" stroke="#ffffff" stroke-width="1" fill="none">
    <path d="M1392 342c98-30 179-35 245-17 72 19 159 14 239-28"/>
    <path d="M1518 360c76-22 150-24 221-8 78 18 153 6 231-42"/>
    <path d="M1648 336c68 10 130 4 185-18 54-21 101-54 155-59"/>
  </g>
  <path d="M282 219c86 0 128 58 215 58 111 0 129-99 242-104 98-4 127 64 226 60 114-5 125-101 239-108 111-7 149 79 259 75 76-3 109-46 186-37 65 8 91 42 155 42" stroke="#a89582" stroke-width="8" stroke-linecap="round" stroke-dasharray="1 22"/>
  <g fill="#6b5b48" font-family="Cormorant Garamond, Georgia, serif" font-size="34" font-weight="600">
    <text x="206" y="184">Улан-Удэ</text>
    <text x="760" y="90">Баргузинский тракт</text>
    <text x="1648" y="172">Гремячинск</text>
  </g>
  <circle cx="282" cy="220" r="8" fill="#9e8a79"/>
  <circle cx="1574" cy="196" r="8" fill="#9e8a79"/>
  <path d="M1574 112c-25 0-45 20-45 45 0 34 45 88 45 88s45-54 45-88c0-25-20-45-45-45Z" stroke="#4b463f" stroke-width="6" fill="none"/>
  <circle cx="1574" cy="157" r="18" stroke="#4b463f" stroke-width="4" fill="none"/>
</svg>
