<svg width="64" height="64" viewBox="0 0 64 64" fill="none" xmlns="http://www.w3.org/2000/svg">
  <defs>
    <linearGradient id="maxGradient" x1="14" y1="48" x2="50" y2="14" gradientUnits="userSpaceOnUse">
      <stop offset="0" stop-color="#58C8F0"/>
      <stop offset="0.46" stop-color="#246BE8"/>
      <stop offset="1" stop-color="#9B35D9"/>
    </linearGradient>
  </defs>
  <circle cx="32" cy="32" r="30" fill="url(#maxGradient)"/>
  <path
    d="M31.7 18.7C22.5 18.7 15 25.9 15 35.1c0 5.3 2.4 10 6.1 13l-1.4 6.1c-.2.9.8 1.6 1.6 1.1l6.2-3.8c1.4.4 2.8.6 4.3.6 9.2 0 16.7-7.2 16.7-16.4S40.9 18.7 31.7 18.7Zm.1 8.6c4.6 0 8.4 3.7 8.4 8.3s-3.8 8.3-8.4 8.3c-1.7 0-3.3-.5-4.6-1.4l-3.2 2 .8-3.6c-1-1.4-1.5-3.2-1.5-5.2 0-4.7 3.8-8.4 8.5-8.4Z"
    fill="#fff"
    fill-rule="evenodd"
    clip-rule="evenodd"
  />
</svg>
