<svg width="44" height="24" viewBox="0 0 44 24" fill="none" xmlns="http://www.w3.org/2000/svg">
  <g stroke="#a16c44" stroke-width="1.25" stroke-linecap="round" stroke-linejoin="round" opacity="0.62">
    <path d="M7 16.8C15.1 14.8 22 10.9 28.4 4.8" />
    <path d="M10.9 15.8C9.8 13.7 8.5 12 6.9 10.8" />
    <path d="M14.9 14.3C13.6 12 12 10 10.1 8.5" />
    <path d="M18.8 12.3C17.2 9.9 15.4 7.9 13.3 6.4" />
    <path d="M22.3 10.1C21.3 7.5 19.9 5.3 18 3.3" />
    <path d="M12.5 15.2C10.7 17.1 8.7 18.5 6.4 19.4" />
    <path d="M16.7 13.7C15.1 16 13 17.8 10.6 19.2" />
    <path d="M20.8 11.7C19.5 14.4 17.5 16.7 14.9 18.8" />
    <path d="M24.7 9.1C23.6 12.1 21.8 14.8 19.2 17.1" />
    <path d="M28.1 6C27.3 9.2 25.6 12 23 14.6" />
    <path d="M27.4 5.6C30.5 5.4 33.5 6.1 36.3 7.6" />
    <path d="M25 8C28.2 8.1 31.1 9 33.8 10.8" />
    <path d="M22.1 10.1C25.2 10.7 27.9 12 30.4 14.2" />
  </g>
</svg>
