<svg width="64" height="46" viewBox="0 0 64 46" fill="none" xmlns="http://www.w3.org/2000/svg">
  <g stroke="#a16c44" stroke-width="2.2" stroke-linecap="round" stroke-linejoin="round">
    <path d="M13.5 12.8 41.7 8.8" />
    <path d="M14.5 17.4 38.7 14" />
    <path d="M13.1 15.9 8.2 18.2a4.1 4.1 0 0 0-2 5.5l7.5 15.7a4.1 4.1 0 0 0 5.5 2l19.2-9.1" opacity=".9" />
    <rect x="16.1" y="17.6" width="37.8" height="24.2" rx="3.8" transform="rotate(-7.8 16.1 17.6)" />
    <path d="m18.9 35.8 9.3-11.4 10.4 8.1 4.9-6.1 8.5 6.5" />
    <path d="M54.4 25.4 59.1 12a5 5 0 0 0-9.4-3.3l-6.1 17.4a3.5 3.5 0 0 0 6.6 2.3l5-14.2" />
  </g>
</svg>
